<svg width="83" height="83" viewBox="0 0 83 83" fill="none" xmlns="http://www.w3.org/2000/svg">
<path d="M70.7354 39.5315C70.4543 35.4368 69.3173 31.4466 67.3979 27.8187L60.6188 31.4051C62.0366 34.0849 62.8764 37.0323 63.0841 40.0569L70.7354 39.5315Z" fill="#85A097"/>
<path d="M64.7177 23.6486C62.2152 20.3955 59.058 17.7035 55.4502 15.7465L51.7935 22.488C54.4584 23.9335 56.7904 25.9219 58.639 28.3249L64.7177 23.6486Z" fill="#85A097"/>
<path d="M50.1399 13.5096C46.2192 12.2955 42.0874 11.9173 38.0114 12.3995L38.9125 20.0157C41.9232 19.6595 44.9751 19.9389 47.8712 20.8357L50.1399 13.5096Z" fill="#85A097"/>
<path d="M33.8547 13.1993C29.8905 14.2629 26.1936 16.1462 23.0027 18.7277L27.8263 24.6902C30.1833 22.7834 32.914 21.3922 35.8422 20.6066L33.8547 13.1993Z" fill="#6D6D6D"/>
<path d="M19.8052 21.7356C17.0351 24.7642 14.9312 28.3402 13.6293 32.2326L20.9026 34.6653C21.8642 31.7902 23.4183 29.1488 25.4644 26.9117L19.8052 21.7356Z" fill="#6D6D6D"/>
<path d="M12.6436 35.9906C11.8673 40.0209 11.9452 44.1692 12.872 48.1675L20.3432 46.4356C19.6586 43.4822 19.6011 40.418 20.1745 37.4411L12.6436 35.9906Z" fill="#6D6D6D"/>
<path d="M14.2256 52.472C15.7544 56.281 18.0652 59.727 21.0087 62.5873L26.3534 57.087C24.1792 54.9743 22.4723 52.4289 21.343 49.6153L14.2256 52.472Z" fill="#6D6D6D"/>
<path class="blinking_path" d="M24.5402 65.518C27.8938 67.8843 31.7065 69.5208 35.7319 70.3218L37.2286 62.7999C34.2552 62.2083 31.439 60.9995 28.9619 59.2516L24.5402 65.518Z" fill="#6D6D6D" />
<path d="M39.0243 70.785C43.1145 71.1255 47.2307 70.6042 51.1069 69.2548L48.5853 62.0118C45.7222 63.0086 42.6818 63.3936 39.6605 63.1421L39.0243 70.785Z" fill="#85A097"/>
<path d="M55.5482 67.2835C59.1486 65.3129 62.2956 62.609 64.7858 59.3464L58.6894 54.6932C56.85 57.1031 54.5255 59.1003 51.8661 60.5559L55.5482 67.2835Z" fill="#85A097"/>
<path d="M67.2185 55.5974C69.1845 51.9946 70.3729 48.0194 70.7069 43.9286L63.063 43.3046C62.8163 46.3262 61.9385 49.2625 60.4863 51.9237L67.2185 55.5974Z" fill="#85A097"/>
<circle cx="41" cy="41" r="15.5" stroke="#6D6D6D"/>
<path d="M34.068 43C33.932 43 33.808 42.968 33.696 42.904C33.588 42.836 33.502 42.748 33.438 42.64C33.374 42.528 33.342 42.406 33.342 42.274V42.1H33.834V42.274C33.834 42.338 33.856 42.394 33.9 42.442C33.948 42.486 34.004 42.508 34.068 42.508H36.978C37.042 42.508 37.096 42.486 37.14 42.442C37.188 42.394 37.212 42.338 37.212 42.274V41.254C37.212 41.19 37.188 41.136 37.14 41.092C37.096 41.044 37.042 41.02 36.978 41.02H33.342V38.674H37.704V39.172H34.068C34.004 39.172 33.948 39.196 33.9 39.244C33.856 39.288 33.834 39.342 33.834 39.406V40.288C33.834 40.352 33.856 40.408 33.9 40.456C33.948 40.504 34.004 40.528 34.068 40.528H36.978C37.11 40.528 37.23 40.56 37.338 40.624C37.45 40.688 37.538 40.776 37.602 40.888C37.67 40.996 37.704 41.118 37.704 41.254V42.274C37.704 42.406 37.67 42.528 37.602 42.64C37.538 42.748 37.45 42.836 37.338 42.904C37.23 42.968 37.11 43 36.978 43H34.068ZM39.5885 43C39.4525 43 39.3285 42.968 39.2165 42.904C39.1085 42.836 39.0225 42.748 38.9585 42.64C38.8945 42.528 38.8625 42.406 38.8625 42.274V39.406C38.8625 39.27 38.8945 39.148 38.9585 39.04C39.0225 38.928 39.1085 38.84 39.2165 38.776C39.3285 38.708 39.4525 38.674 39.5885 38.674H42.4685V39.172H39.5885C39.5245 39.172 39.4685 39.196 39.4205 39.244C39.3765 39.288 39.3545 39.342 39.3545 39.406V40.27C39.3545 40.334 39.3765 40.39 39.4205 40.438C39.4685 40.486 39.5245 40.51 39.5885 40.51H42.4985C42.6305 40.51 42.7505 40.542 42.8585 40.606C42.9705 40.67 43.0585 40.758 43.1225 40.87C43.1905 40.978 43.2245 41.1 43.2245 41.236V42.274C43.2245 42.406 43.1905 42.528 43.1225 42.64C43.0585 42.748 42.9705 42.836 42.8585 42.904C42.7505 42.968 42.6305 43 42.4985 43H39.5885ZM39.5885 42.508H42.4985C42.5625 42.508 42.6165 42.486 42.6605 42.442C42.7085 42.394 42.7325 42.338 42.7325 42.274V41.236C42.7325 41.172 42.7085 41.118 42.6605 41.074C42.6165 41.026 42.5625 41.002 42.4985 41.002H39.3545V42.274C39.3545 42.338 39.3765 42.394 39.4205 42.442C39.4685 42.486 39.5245 42.508 39.5885 42.508ZM44.8043 43V42.352L49.1003 38.734L49.1723 38.674V39.316L44.9063 42.91L44.8043 43ZM45.0023 40.642C44.8663 40.642 44.7423 40.61 44.6303 40.546C44.5223 40.478 44.4343 40.39 44.3663 40.282C44.3023 40.17 44.2703 40.048 44.2703 39.916V39.412C44.2703 39.276 44.3023 39.154 44.3663 39.046C44.4343 38.934 44.5223 38.846 44.6303 38.782C44.7423 38.714 44.8663 38.68 45.0023 38.68H45.5663C45.7023 38.68 45.8243 38.714 45.9323 38.782C46.0443 38.846 46.1323 38.934 46.1963 39.046C46.2643 39.154 46.2983 39.276 46.2983 39.412V39.916C46.2983 40.048 46.2643 40.17 46.1963 40.282C46.1323 40.39 46.0443 40.478 45.9323 40.546C45.8243 40.61 45.7023 40.642 45.5663 40.642H45.0023ZM44.6363 40.276H45.9323V39.052H44.6363V40.276ZM48.2783 43.006C48.1423 43.006 48.0183 42.974 47.9063 42.91C47.7983 42.842 47.7123 42.754 47.6483 42.646C47.5843 42.534 47.5523 42.412 47.5523 42.28V41.77C47.5523 41.638 47.5843 41.518 47.6483 41.41C47.7123 41.298 47.7983 41.21 47.9063 41.146C48.0183 41.078 48.1423 41.044 48.2783 41.044H48.8483C48.9803 41.044 49.1003 41.078 49.2083 41.146C49.3203 41.21 49.4083 41.298 49.4723 41.41C49.5403 41.518 49.5743 41.638 49.5743 41.77V42.28C49.5743 42.412 49.5403 42.534 49.4723 42.646C49.4083 42.754 49.3203 42.842 49.2083 42.91C49.1003 42.974 48.9803 43.006 48.8483 43.006H48.2783ZM47.9183 42.64H49.2083V41.41H47.9183V42.64Z" fill="#6D6D6D"/>
<rect x="41.2363" y="22.7979" width="3.24515" height="3.24515" transform="rotate(45 41.2363 22.7979)" fill="#85A097"/>
<rect x="41.2363" y="54.168" width="3.24515" height="3.24515" transform="rotate(45 41.2363 54.168)" fill="#85A097"/>
</svg>
