<svg width="83" height="83" viewBox="0 0 83 83" fill="none" xmlns="http://www.w3.org/2000/svg">
<path d="M70.7354 39.4495C70.4543 35.3548 69.3173 31.3646 67.3979 27.7366L60.6188 31.3231C62.0366 34.0029 62.8764 36.9503 63.0841 39.9748L70.7354 39.4495Z" fill="#85A097"/>
<path d="M64.7177 23.5666C62.2152 20.3135 59.058 17.6214 55.4502 15.6645L51.7935 22.4059C54.4584 23.8514 56.7904 25.8399 58.639 28.2429L64.7177 23.5666Z" fill="#85A097"/>
<path d="M50.1399 13.4276C46.2192 12.2134 42.0874 11.8353 38.0114 12.3175L38.9125 19.9337C41.9232 19.5775 44.9751 19.8569 47.8712 20.7537L50.1399 13.4276Z" fill="#85A097"/>
<path d="M33.8547 13.1172C29.8905 14.1808 26.1936 16.0642 23.0027 18.6457L27.8263 24.6081C30.1833 22.7014 32.914 21.3102 35.8422 20.5246L33.8547 13.1172Z" fill="#6D6D6D"/>
<path d="M19.8052 21.6535C17.0351 24.6822 14.9312 28.2582 13.6293 32.1506L20.9026 34.5833C21.8642 31.7082 23.4183 29.0667 25.4644 26.8296L19.8052 21.6535Z" fill="#6D6D6D"/>
<path d="M12.6436 35.9095C11.8673 39.9398 11.9452 44.0881 12.872 48.0865L20.3432 46.3545C19.6586 43.4011 19.6011 40.337 20.1745 37.36L12.6436 35.9095Z" fill="#85A097"/>
<path d="M14.2256 52.39C15.7544 56.199 18.0652 59.645 21.0087 62.5053L26.3534 57.005C24.1792 54.8922 22.4723 52.3469 21.343 49.5333L14.2256 52.39Z" fill="#85A097"/>
<path d="M24.5402 65.4359C27.8938 67.8023 31.7065 69.4388 35.7319 70.2398L37.2286 62.7179C34.2552 62.1263 31.439 60.9174 28.9619 59.1696L24.5402 65.4359Z" fill="#85A097"/>
<path d="M39.0243 70.703C43.1145 71.0435 47.2307 70.5222 51.1069 69.1727L48.5853 61.9298C45.7222 62.9265 42.6818 63.3116 39.6605 63.0601L39.0243 70.703Z" fill="#85A097"/>
<path d="M55.5482 67.2014C59.1486 65.2309 62.2956 62.527 64.7858 59.2644L58.6894 54.6111C56.85 57.021 54.5255 59.0183 51.8661 60.4739L55.5482 67.2014Z" fill="#85A097"/>
<path d="M67.2185 55.5154C69.1845 51.9126 70.3729 47.9374 70.7069 43.8466L63.063 43.2225C62.8163 46.2442 61.9385 49.1805 60.4863 51.8417L67.2185 55.5154Z" fill="#85A097"/>
<path d="M57.0249 41C57.0249 49.546 49.8761 56.5 41.0249 56.5C32.1737 56.5 25.0249 49.546 25.0249 41C25.0249 32.454 32.1737 25.5 41.0249 25.5C49.8761 25.5 57.0249 32.454 57.0249 41Z" stroke="#6D6D6D"/>
<path d="M33.5929 43C33.4569 43 33.3329 42.968 33.2209 42.904C33.1129 42.836 33.0269 42.748 32.9629 42.64C32.8989 42.528 32.8669 42.406 32.8669 42.274V41.254C32.8669 41.174 32.8829 41.094 32.9149 41.014C32.9469 40.93 32.9909 40.85 33.0469 40.774C32.9909 40.698 32.9469 40.618 32.9149 40.534C32.8829 40.45 32.8669 40.368 32.8669 40.288V39.406C32.8669 39.27 32.8989 39.148 32.9629 39.04C33.0269 38.928 33.1129 38.84 33.2209 38.776C33.3329 38.708 33.4569 38.674 33.5929 38.674H36.5029C36.6149 38.674 36.7189 38.704 36.8149 38.764C36.9149 38.82 37.0009 38.896 37.0729 38.992C37.1489 39.084 37.2009 39.182 37.2289 39.286V40.288C37.2289 40.448 37.1689 40.61 37.0489 40.774C37.1689 40.93 37.2289 41.09 37.2289 41.254V42.274C37.2289 42.406 37.1949 42.528 37.1269 42.64C37.0629 42.748 36.9749 42.836 36.8629 42.904C36.7549 42.968 36.6349 43 36.5029 43H33.5929ZM33.5929 42.508H36.5029C36.5669 42.508 36.6209 42.486 36.6649 42.442C36.7129 42.394 36.7369 42.338 36.7369 42.274V41.254C36.7369 41.19 36.7129 41.136 36.6649 41.092C36.6209 41.044 36.5669 41.02 36.5029 41.02H33.5929C33.5289 41.02 33.4729 41.044 33.4249 41.092C33.3809 41.136 33.3589 41.19 33.3589 41.254V42.274C33.3589 42.338 33.3809 42.394 33.4249 42.442C33.4729 42.486 33.5289 42.508 33.5929 42.508ZM33.5929 40.594H36.5029C36.5669 40.594 36.6209 40.572 36.6649 40.528C36.7129 40.48 36.7369 40.424 36.7369 40.36V39.412C36.7369 39.348 36.7129 39.294 36.6649 39.25C36.6209 39.202 36.5669 39.178 36.5029 39.178H33.5929C33.5289 39.178 33.4729 39.202 33.4249 39.25C33.3809 39.294 33.3589 39.348 33.3589 39.412V40.36C33.3589 40.424 33.3809 40.48 33.4249 40.528C33.4729 40.572 33.5289 40.594 33.5929 40.594ZM39.1368 43C39.0008 43 38.8768 42.968 38.7648 42.904C38.6568 42.836 38.5708 42.748 38.5068 42.64C38.4428 42.528 38.4108 42.406 38.4108 42.274V39.412C38.4108 39.276 38.4428 39.154 38.5068 39.046C38.5708 38.934 38.6568 38.846 38.7648 38.782C38.8768 38.714 39.0008 38.68 39.1368 38.68H42.0468C42.1788 38.68 42.2988 38.714 42.4068 38.782C42.5188 38.846 42.6068 38.934 42.6708 39.046C42.7388 39.154 42.7728 39.276 42.7728 39.412V42.274C42.7728 42.406 42.7388 42.528 42.6708 42.64C42.6068 42.748 42.5188 42.836 42.4068 42.904C42.2988 42.968 42.1788 43 42.0468 43H39.1368ZM38.9628 42.508H42.0468C42.1108 42.508 42.1648 42.486 42.2088 42.442C42.2568 42.394 42.2808 42.338 42.2808 42.274V39.772L38.9628 42.508ZM38.9028 41.914L42.2148 39.178H39.1368C39.0728 39.178 39.0168 39.202 38.9688 39.25C38.9248 39.294 38.9028 39.348 38.9028 39.412V41.914ZM44.4347 43V42.352L48.7307 38.734L48.8027 38.674V39.316L44.5367 42.91L44.4347 43ZM44.6327 40.642C44.4967 40.642 44.3727 40.61 44.2607 40.546C44.1527 40.478 44.0647 40.39 43.9967 40.282C43.9327 40.17 43.9007 40.048 43.9007 39.916V39.412C43.9007 39.276 43.9327 39.154 43.9967 39.046C44.0647 38.934 44.1527 38.846 44.2607 38.782C44.3727 38.714 44.4967 38.68 44.6327 38.68H45.1967C45.3327 38.68 45.4547 38.714 45.5627 38.782C45.6747 38.846 45.7627 38.934 45.8267 39.046C45.8947 39.154 45.9287 39.276 45.9287 39.412V39.916C45.9287 40.048 45.8947 40.17 45.8267 40.282C45.7627 40.39 45.6747 40.478 45.5627 40.546C45.4547 40.61 45.3327 40.642 45.1967 40.642H44.6327ZM44.2667 40.276H45.5627V39.052H44.2667V40.276ZM47.9087 43.006C47.7727 43.006 47.6487 42.974 47.5367 42.91C47.4287 42.842 47.3427 42.754 47.2787 42.646C47.2147 42.534 47.1827 42.412 47.1827 42.28V41.77C47.1827 41.638 47.2147 41.518 47.2787 41.41C47.3427 41.298 47.4287 41.21 47.5367 41.146C47.6487 41.078 47.7727 41.044 47.9087 41.044H48.4787C48.6107 41.044 48.7307 41.078 48.8387 41.146C48.9507 41.21 49.0387 41.298 49.1027 41.41C49.1707 41.518 49.2047 41.638 49.2047 41.77V42.28C49.2047 42.412 49.1707 42.534 49.1027 42.646C49.0387 42.754 48.9507 42.842 48.8387 42.91C48.7307 42.974 48.6107 43.006 48.4787 43.006H47.9087ZM47.5487 42.64H48.8387V41.41H47.5487V42.64Z" fill="#6D6D6D"/>
<rect x="41.2363" y="23.7979" width="3.24515" height="3.24515" transform="rotate(45 41.2363 23.7979)" fill="#85A097"/>
<rect x="41.2363" y="55.168" width="3.24515" height="3.24515" transform="rotate(45 41.2363 55.168)" fill="#85A097"/>
</svg>
