<svg width="84" height="83" viewBox="0 0 84 83" fill="none" xmlns="http://www.w3.org/2000/svg">
<path d="M71.4405 39.4495C71.1593 35.3548 70.0224 31.3646 68.103 27.7366L61.3239 31.3231C62.7417 34.0029 63.5815 36.9503 63.7891 39.9748L71.4405 39.4495Z" fill="#85A097"/>
<path d="M65.4228 23.5666C62.9203 20.3135 59.7631 17.6214 56.1553 15.6645L52.4986 22.4059C55.1635 23.8514 57.4955 25.8399 59.344 28.2429L65.4228 23.5666Z" fill="#85A097"/>
<path d="M50.8449 13.4276C46.9242 12.2134 42.7925 11.8353 38.7165 12.3175L39.6176 19.9337C42.6283 19.5775 45.6802 19.8569 48.5762 20.7537L50.8449 13.4276Z" fill="#85A097"/>
<path d="M34.5598 13.1172C30.5956 14.1808 26.8987 16.0642 23.7077 18.6457L28.5314 24.6081C30.8883 22.7014 33.6191 21.3102 36.5472 20.5246L34.5598 13.1172Z" fill="#6D6D6D"/>
<path d="M20.5103 21.6535C17.7402 24.6822 15.6363 28.2582 14.3344 32.1506L21.6077 34.5833C22.5693 31.7082 24.1234 29.0667 26.1695 26.8296L20.5103 21.6535Z" fill="#6D6D6D"/>
<path d="M13.3487 35.9095C12.5724 39.9398 12.6502 44.0881 13.5771 48.0865L21.0483 46.3545C20.3637 43.4011 20.3062 40.337 20.8796 37.36L13.3487 35.9095Z" fill="#6D6D6D"/>
<path d="M14.9307 52.39C16.4594 56.199 18.7703 59.645 21.7138 62.5053L27.0585 57.005C24.8842 54.8922 23.1774 52.3469 22.0481 49.5333L14.9307 52.39Z" fill="#6D6D6D"/>
<path d="M25.2453 65.4359C28.5989 67.8023 32.4115 69.4388 36.437 70.2398L37.9337 62.7179C34.9603 62.1263 32.1441 60.9174 29.667 59.1696L25.2453 65.4359Z" fill="#85A097"/>
<path d="M39.7293 70.703C43.8196 71.0435 47.9357 70.5222 51.8119 69.1727L49.2904 61.9298C46.4273 62.9265 43.3868 63.3116 40.3656 63.0601L39.7293 70.703Z" fill="#85A097"/>
<path d="M56.2533 67.2014C59.8537 65.2309 63.0007 62.527 65.4909 59.2644L59.3945 54.6111C57.5551 57.021 55.2306 59.0183 52.5711 60.4739L56.2533 67.2014Z" fill="#85A097"/>
<path d="M67.9231 55.5154C69.8891 51.9126 71.0775 47.9374 71.4115 43.8466L63.7676 43.2225C63.5209 46.2442 62.6431 49.1805 61.1909 51.8417L67.9231 55.5154Z" fill="#85A097"/>
<circle cx="42" cy="41" r="15.5" stroke="#6D6D6D"/>
<path d="M35.068 43C34.932 43 34.808 42.968 34.696 42.904C34.588 42.836 34.502 42.748 34.438 42.64C34.374 42.528 34.342 42.406 34.342 42.274V39.406C34.342 39.27 34.374 39.148 34.438 39.04C34.502 38.928 34.588 38.84 34.696 38.776C34.808 38.708 34.932 38.674 35.068 38.674H37.948V39.172H35.068C35.004 39.172 34.948 39.196 34.9 39.244C34.856 39.288 34.834 39.342 34.834 39.406V40.27C34.834 40.334 34.856 40.39 34.9 40.438C34.948 40.486 35.004 40.51 35.068 40.51H37.978C38.11 40.51 38.23 40.542 38.338 40.606C38.45 40.67 38.538 40.758 38.602 40.87C38.67 40.978 38.704 41.1 38.704 41.236V42.274C38.704 42.406 38.67 42.528 38.602 42.64C38.538 42.748 38.45 42.836 38.338 42.904C38.23 42.968 38.11 43 37.978 43H35.068ZM35.068 42.508H37.978C38.042 42.508 38.096 42.486 38.14 42.442C38.188 42.394 38.212 42.338 38.212 42.274V41.236C38.212 41.172 38.188 41.118 38.14 41.074C38.096 41.026 38.042 41.002 37.978 41.002H34.834V42.274C34.834 42.338 34.856 42.394 34.9 42.442C34.948 42.486 35.004 42.508 35.068 42.508ZM40.5299 43C40.3939 43 40.2699 42.968 40.1579 42.904C40.0499 42.836 39.9639 42.748 39.8999 42.64C39.8359 42.528 39.8039 42.406 39.8039 42.274V39.412C39.8039 39.276 39.8359 39.154 39.8999 39.046C39.9639 38.934 40.0499 38.846 40.1579 38.782C40.2699 38.714 40.3939 38.68 40.5299 38.68H43.4399C43.5719 38.68 43.6919 38.714 43.7999 38.782C43.9119 38.846 43.9999 38.934 44.0639 39.046C44.1319 39.154 44.1659 39.276 44.1659 39.412V42.274C44.1659 42.406 44.1319 42.528 44.0639 42.64C43.9999 42.748 43.9119 42.836 43.7999 42.904C43.6919 42.968 43.5719 43 43.4399 43H40.5299ZM40.3559 42.508H43.4399C43.5039 42.508 43.5579 42.486 43.6019 42.442C43.6499 42.394 43.6739 42.338 43.6739 42.274V39.772L40.3559 42.508ZM40.2959 41.914L43.6079 39.178H40.5299C40.4659 39.178 40.4099 39.202 40.3619 39.25C40.3179 39.294 40.2959 39.348 40.2959 39.412V41.914ZM45.8278 43V42.352L50.1238 38.734L50.1958 38.674V39.316L45.9298 42.91L45.8278 43ZM46.0258 40.642C45.8898 40.642 45.7658 40.61 45.6538 40.546C45.5458 40.478 45.4578 40.39 45.3898 40.282C45.3258 40.17 45.2938 40.048 45.2938 39.916V39.412C45.2938 39.276 45.3258 39.154 45.3898 39.046C45.4578 38.934 45.5458 38.846 45.6538 38.782C45.7658 38.714 45.8898 38.68 46.0258 38.68H46.5898C46.7258 38.68 46.8478 38.714 46.9558 38.782C47.0678 38.846 47.1558 38.934 47.2198 39.046C47.2878 39.154 47.3218 39.276 47.3218 39.412V39.916C47.3218 40.048 47.2878 40.17 47.2198 40.282C47.1558 40.39 47.0678 40.478 46.9558 40.546C46.8478 40.61 46.7258 40.642 46.5898 40.642H46.0258ZM45.6598 40.276H46.9558V39.052H45.6598V40.276ZM49.3018 43.006C49.1658 43.006 49.0418 42.974 48.9298 42.91C48.8218 42.842 48.7358 42.754 48.6718 42.646C48.6078 42.534 48.5758 42.412 48.5758 42.28V41.77C48.5758 41.638 48.6078 41.518 48.6718 41.41C48.7358 41.298 48.8218 41.21 48.9298 41.146C49.0418 41.078 49.1658 41.044 49.3018 41.044H49.8718C50.0038 41.044 50.1238 41.078 50.2318 41.146C50.3438 41.21 50.4318 41.298 50.4958 41.41C50.5638 41.518 50.5978 41.638 50.5978 41.77V42.28C50.5978 42.412 50.5638 42.534 50.4958 42.646C50.4318 42.754 50.3438 42.842 50.2318 42.91C50.1238 42.974 50.0038 43.006 49.8718 43.006H49.3018ZM48.9418 42.64H50.2318V41.41H48.9418V42.64Z" fill="#6D6D6D"/>
<rect x="41.9414" y="23.7979" width="3.24515" height="3.24515" transform="rotate(45 41.9414 23.7979)" fill="#85A097"/>
<rect x="41.9414" y="55.168" width="3.24515" height="3.24515" transform="rotate(45 41.9414 55.168)" fill="#85A097"/>
</svg>
