<svg width="304" height="83" viewBox="0 0 304 83" fill="none" xmlns="http://www.w3.org/2000/svg">
<rect x="150.887" y="79" width="76" height="0.99268" transform="rotate(-90 150.887 79)" fill="#6D6D6D"/>
<rect x="0.992676" y="79" width="76" height="0.99268" transform="rotate(-90 0.992676 79)" fill="#6D6D6D"/>
<rect x="226.33" y="79" width="76" height="0.99268" transform="rotate(-90 226.33 79)" fill="#6D6D6D"/>
<rect x="301.773" y="79" width="76" height="0.99268" transform="rotate(-90 301.773 79)" fill="#6D6D6D"/>
<rect x="149.894" y="79" width="3.219" height="3.24275" fill="#D9D9D9"/>
<rect y="79" width="3.219" height="3.24275" fill="#D9D9D9"/>
<rect x="225.337" y="79" width="3.219" height="3.24275" fill="#D9D9D9"/>
<rect x="300.781" y="79" width="3.219" height="3.24275" fill="#D9D9D9"/>
<rect x="149.894" width="2.97803" height="3" fill="#D9D9D9"/>
<rect width="2.97803" height="3" fill="#D9D9D9"/>
<rect x="225.337" width="2.97803" height="3" fill="#D9D9D9"/>
<rect x="300.781" width="2.97803" height="3" fill="#D9D9D9"/>
<rect x="149.894" y="43" width="2.97803" height="3" fill="#D9D9D9"/>
<rect y="43" width="2.97803" height="3" fill="#D9D9D9"/>
<rect x="225.337" y="43" width="2.97803" height="3" fill="#D9D9D9"/>
<rect x="300.781" y="36" width="2.97803" height="3" fill="#D9D9D9"/>
</svg>
