<svg width="28" height="28" viewBox="0 0 28 28" fill="none" xmlns="http://www.w3.org/2000/svg">
<path d="M11.1666 11.1666H16.8333M11.1666 11.1666V16.8333M11.1666 11.1666L6.20828 6.20828M16.8333 11.1666V16.8333M16.8333 11.1666L21.7916 6.20828M16.8333 16.8333H11.1666M16.8333 16.8333L21.7916 21.7916M11.1666 16.8333L6.20828 21.7916M11.1099 5.49995C10.9797 4.58842 10.5981 3.73117 10.0081 3.02426C9.41807 2.31735 8.64285 1.78871 7.7693 1.49756C6.89575 1.20641 5.95838 1.16425 5.06222 1.37582C4.16607 1.58739 3.34653 2.04433 2.69543 2.69543C2.04433 3.34653 1.58739 4.16607 1.37582 5.06222C1.16425 5.95838 1.20641 6.89575 1.49756 7.7693C1.78871 8.64285 2.31735 9.41807 3.02426 10.0081C3.73117 10.5981 4.58842 10.9797 5.49995 11.1099M22.4999 11.1099C23.4115 10.9797 24.2687 10.5981 24.9756 10.0081C25.6825 9.41807 26.2112 8.64285 26.5023 7.7693C26.7935 6.89575 26.8356 5.95838 26.6241 5.06222C26.4125 4.16607 25.9556 3.34653 25.3045 2.69543C24.6534 2.04433 23.8338 1.58739 22.9377 1.37582C22.0415 1.16425 21.1042 1.20641 20.2306 1.49756C19.357 1.78871 18.5818 2.31735 17.9918 3.02426C17.4018 3.73117 17.0202 4.58842 16.8899 5.49995M16.8899 22.4999C17.0202 23.4115 17.4018 24.2687 17.9918 24.9756C18.5818 25.6825 19.357 26.2112 20.2306 26.5023C21.1042 26.7935 22.0415 26.8356 22.9377 26.6241C23.8338 26.4125 24.6534 25.9556 25.3045 25.3045C25.9556 24.6534 26.4125 23.8338 26.6241 22.9377C26.8356 22.0415 26.7935 21.1042 26.5023 20.2306C26.2112 19.357 25.6825 18.5818 24.9756 17.9918C24.2687 17.4018 23.4115 17.0202 22.4999 16.8899M5.49995 16.8899C4.58842 17.0202 3.73117 17.4018 3.02426 17.9918C2.31735 18.5818 1.78871 19.357 1.49756 20.2306C1.20641 21.1042 1.16425 22.0415 1.37582 22.9377C1.58739 23.8338 2.04433 24.6534 2.69543 25.3045C3.34653 25.9556 4.16607 26.4125 5.06222 26.6241C5.95838 26.8356 6.89575 26.7935 7.7693 26.5023C8.64285 26.2112 9.41807 25.6825 10.0081 24.9756C10.5981 24.2687 10.9797 23.4115 11.1099 22.4999" stroke="#8F86F7" stroke-width="2" stroke-linecap="round" stroke-linejoin="round"/>
</svg>
