<svg width="127" height="20" viewBox="0 0 127 20" fill="none" xmlns="http://www.w3.org/2000/svg">
<rect y="11" width="7" height="9" fill="#85A097"/>
<rect x="8" y="11" width="7" height="9" fill="#85A097"/>
<rect x="16" y="11" width="7" height="9" fill="#85A097"/>
<rect x="24" y="11" width="7" height="9" fill="#85A097"/>
<rect x="32" y="11" width="7" height="9" fill="#85A097"/>
<rect x="40" y="11" width="7" height="9" fill="#85A097"/>
<rect x="48" y="11" width="7" height="9" fill="#85A097"/>
<rect x="56" y="11" width="7" height="9" fill="#85A097"/>
<rect x="64" y="11" width="7" height="9" fill="#85A097"/>
<rect x="72" y="11" width="7" height="9" fill="#85A097"/>
<rect x="80" y="11" width="7" height="9" fill="#6D6D6D"/>
<rect x="88" y="11" width="7" height="9" fill="#6D6D6D"/>
<rect x="96" y="11" width="7" height="9" fill="#6D6D6D"/>
<rect x="104" y="11" width="7" height="9" fill="#6D6D6D"/>
<rect x="112" y="11" width="7" height="9" fill="#6D6D6D"/>
<rect x="120" y="11" width="7" height="9" fill="#6D6D6D"/>
<path d="M79.5 9L75.6029 2.25L83.3971 2.25L79.5 9Z" fill="#566862"/>
</svg>
