<svg width="14" height="14" viewBox="0 0 14 14" fill="none" xmlns="http://www.w3.org/2000/svg">
<path d="M11.6667 0H2.33333C1.71449 0 1.121 0.1475 0.683417 0.41005C0.245833 0.672601 0 1.0287 0 1.4V12.6C0 12.9713 0.245833 13.3274 0.683417 13.5899C1.121 13.8525 1.71449 14 2.33333 14H11.6667C12.2855 14 12.879 13.8525 13.3166 13.5899C13.7542 13.3274 14 12.9713 14 12.6V1.4C14 1.0287 13.7542 0.672601 13.3166 0.41005C12.879 0.1475 12.2855 0 11.6667 0ZM8.16667 13.3H5.83333V12.6H8.16667V13.3ZM11.6667 11.9H2.33333V2.1H11.6667V11.9Z" fill="#85A097"/>
</svg>
