<svg width="304" height="86" viewBox="0 0 304 86" fill="none" xmlns="http://www.w3.org/2000/svg">
<rect x="2" y="76.207" width="131" height="1" fill="#6D6D6D"/>
<rect x="131" y="76" width="49" height="1" transform="rotate(-90 131 76)" fill="#6D6D6D"/>
<rect x="1" y="82.207" width="131" height="1" fill="#6D6D6D"/>
<rect x="131" y="76" width="170" height="1" fill="#6D6D6D"/>
<rect x="131" y="82.207" width="169" height="1" fill="#6D6D6D"/>
<rect x="129.671" y="74.8789" width="3.24275" height="3.24275" fill="#D9D9D9"/>
<rect x="130" y="24" width="3" height="3" fill="#D9D9D9"/>
<rect x="0.671387" y="74.8789" width="3.24275" height="3.24275" fill="#D9D9D9"/>
<rect x="0.671387" y="80.8789" width="3.24275" height="3.24275" fill="#D9D9D9"/>
<rect x="129.671" y="81.8789" width="3.24275" height="3.24275" fill="#D9D9D9"/>
<rect x="301" y="82" width="56" height="1" transform="rotate(-90 301 82)" fill="#6D6D6D"/>
<rect x="300" y="81" width="3.24275" height="3.24275" fill="#D9D9D9"/>
<rect x="300" y="24" width="3" height="3" fill="#D9D9D9"/>
<rect x="300" y="75" width="3" height="3" fill="#D9D9D9"/>
<rect x="130" y="1.20703" width="170" height="1" fill="#6D6D6D"/>
<rect x="129" y="0.207031" width="3" height="3" fill="#D9D9D9"/>
<rect x="299" width="3" height="3" fill="#D9D9D9"/>
</svg>
