<svg width="303" height="90" viewBox="0 0 303 90" fill="none" xmlns="http://www.w3.org/2000/svg">
<rect x="120" y="1" width="181" height="1" fill="#6D6D6D"/>
<rect y="35.207" width="120" height="1" fill="#6D6D6D"/>
<rect y="54.207" width="299" height="1" fill="#6D6D6D"/>
<rect x="131" y="48.207" width="169" height="1" fill="#6D6D6D"/>
<rect x="1" y="21.207" width="1" height="66" fill="#6D6D6D"/>
<rect x="119" y="2.20703" width="1" height="33" fill="#6D6D6D"/>
<rect y="19.207" width="3" height="3" fill="#D9D9D9"/>
<rect x="128" y="53.207" width="3" height="3" fill="#D9D9D9"/>
<rect y="34.207" width="3" height="3" fill="#D9D9D9"/>
<rect y="53.207" width="3" height="3" fill="#D9D9D9"/>
<rect y="86.207" width="3" height="3" fill="#D9D9D9"/>
<rect x="118" y="34.207" width="3" height="3" fill="#D9D9D9"/>
<rect x="118" y="0.207031" width="3" height="3" fill="#D9D9D9"/>
<rect x="128" y="47.207" width="3" height="3" fill="#D9D9D9"/>
<circle cx="106.5" cy="35.707" r="5" stroke="#488DA3"/>
<circle cx="61.5" cy="35.707" r="5" stroke="#FF5336"/>
<circle cx="15" cy="36.207" r="2.5" fill="#FF5336" stroke="#FF5336"/>
<circle cx="37" cy="36.207" r="3" fill="#C0BC9C"/>
<circle cx="85" cy="36.207" r="3" fill="#488DA3"/>
<circle cx="106.5" cy="35.707" r="2.5" fill="#C0BC9C"/>
<circle cx="61.5" cy="35.707" r="2.5" fill="#488DA3"/>
<rect x="300" y="54" width="52" height="1" transform="rotate(-90 300 54)" fill="#6D6D6D"/>
<rect x="299" y="53" width="3.24275" height="3.24275" fill="#D9D9D9"/>
<rect x="299" width="3" height="3" fill="#D9D9D9"/>
<rect x="299" y="47" width="3" height="3" fill="#D9D9D9"/>
</svg>
