<svg width="304" height="63" viewBox="0 0 304 63" fill="none" xmlns="http://www.w3.org/2000/svg">
<rect x="3" y="54" width="298" height="1" fill="#6D6D6D"/>
<rect x="3" y="60" width="298" height="1" fill="#6D6D6D"/>
<rect y="53.207" width="3.24275" height="3.24275" fill="#D9D9D9"/>
<rect y="59.207" width="3.24275" height="3.24275" fill="#D9D9D9"/>
<rect x="149" y="53.207" width="3.24275" height="3.24275" fill="#D9D9D9"/>
<rect x="149" y="59.207" width="3.24275" height="3.24275" fill="#D9D9D9"/>
<rect x="300" y="59" width="3.24275" height="3.24275" fill="#D9D9D9"/>
<rect x="1" y="1.20703" width="301" height="1" fill="#6D6D6D"/>
<rect x="1" y="2.20703" width="1" height="15" fill="#6D6D6D"/>
<rect x="301" y="2.20703" width="1" height="15" fill="#6D6D6D"/>
<rect y="0.207031" width="3" height="3" fill="#D9D9D9"/>
<rect x="149" width="3" height="3" fill="#D9D9D9"/>
<rect y="15.207" width="3" height="3" fill="#D9D9D9"/>
<rect x="300" y="15.207" width="3" height="3" fill="#D9D9D9"/>
<rect x="300" width="3" height="3" fill="#D9D9D9"/>
<rect x="300" y="53" width="3" height="3" fill="#D9D9D9"/>
</svg>
