<svg width="63" height="63" viewBox="0 0 63 63" fill="none" xmlns="http://www.w3.org/2000/svg">
<circle cx="31.5001" cy="31.4996" r="29.4" fill="#85A097"/>
<path d="M26.2432 22.825L19.1898 11.1201C19.1031 10.9737 18.9875 10.8463 18.85 10.7455C18.7125 10.6447 18.556 10.5726 18.3897 10.5336C18.2235 10.4946 18.0511 10.4895 17.8829 10.5185C17.7146 10.5476 17.554 10.6102 17.4107 10.7026C14.2161 12.8362 11.5543 15.6686 9.62872 18.9833C7.70317 22.298 6.56495 26.0071 6.30114 29.8269C6.29333 29.9968 6.3199 30.1665 6.37927 30.326C6.43864 30.4855 6.52959 30.6315 6.64674 30.7554C6.76388 30.8792 6.90483 30.9784 7.06122 31.047C7.21761 31.1156 7.38626 31.1523 7.55715 31.1548L21.2571 31.3812C21.2875 29.6505 21.7615 27.9562 22.634 26.4589C23.5066 24.9616 24.7489 23.7108 26.2432 22.825ZM46.7363 11.4822C46.5929 11.3789 46.4294 11.3065 46.2563 11.2695C46.0832 11.2326 45.9043 11.232 45.7309 11.2677C45.5576 11.3034 45.3936 11.3747 45.2495 11.4771C45.1054 11.5794 44.9843 11.7105 44.8939 11.862L37.8355 23.577C39.0322 24.5089 40.0042 25.6955 40.6802 27.0498C41.3563 28.4041 41.7192 29.8918 41.7425 31.4038L55.4374 31.1774C55.609 31.1749 55.7783 31.1381 55.9353 31.0693C56.0923 31.0004 56.2338 30.9009 56.3514 30.7766C56.469 30.6522 56.5603 30.5057 56.62 30.3456C56.6796 30.1854 56.7063 30.0151 56.6985 29.8445C56.4575 26.252 55.4433 22.7531 53.7244 19.5849C52.0056 16.4168 49.6223 13.6534 46.7363 11.4822ZM36.4582 40.4328C34.9466 41.2894 33.2392 41.745 31.4998 41.7557C29.7596 41.7453 28.0512 41.2897 26.5389 40.4328L19.8621 52.3917C19.7778 52.5393 19.7245 52.7024 19.7053 52.871C19.6861 53.0397 19.7014 53.2105 19.7503 53.3731C19.7991 53.5357 19.8806 53.6868 19.9897 53.8172C20.0988 53.9477 20.2334 54.0548 20.3852 54.1321C23.8433 55.8245 27.6461 56.7031 31.4998 56.7C35.3518 56.7031 39.153 55.8245 42.6094 54.1321C42.7612 54.0548 42.8957 53.9477 43.0048 53.8172C43.114 53.6868 43.1954 53.5357 43.2443 53.3731C43.2932 53.2105 43.3085 53.0397 43.2893 52.871C43.27 52.7024 43.2167 52.5393 43.1325 52.3917L36.4582 40.4328Z" fill="#0A090F"/>
<path d="M31.4999 38.8504C35.5592 38.8504 38.8499 35.5597 38.8499 31.5004C38.8499 27.4411 35.5592 24.1504 31.4999 24.1504C27.4406 24.1504 24.1499 27.4411 24.1499 31.5004C24.1499 35.5597 27.4406 38.8504 31.4999 38.8504Z" fill="#0A090F"/>
</svg>
