<svg width="38" height="50" viewBox="0 0 38 50" fill="none" xmlns="http://www.w3.org/2000/svg">
<path d="M25.7969 6.22188C28.3281 10.3219 30.7437 16.9406 31.3531 27.5313L36.0406 33.25C37.1481 34.6358 37.7509 36.3573 37.75 38.1312V48.4375C37.75 48.7654 37.6468 49.0851 37.4551 49.3511C37.2633 49.6171 36.9927 49.8161 36.6816 49.9198C36.3705 50.0235 36.0346 50.0267 35.7216 49.9289C35.4086 49.8311 35.1343 49.6374 34.9375 49.375L31.4219 44.6875C30.9031 43.9938 30.1094 43.4375 29.0719 42.9062C28.4031 42.5687 27.7781 42.3063 27.1125 42.025L26.5 41.7656C24.3125 43.1031 21.6562 43.75 19 43.75C16.3438 43.75 13.6875 43.1031 11.5 41.7656C11.2896 41.8573 11.0833 41.9448 10.8812 42.0281C10.2219 42.3063 9.59688 42.5687 8.92812 42.9062C7.89062 43.4375 7.09688 43.9938 6.57813 44.6875L3.0625 49.375C2.86574 49.6374 2.59141 49.8311 2.27839 49.9289C1.96536 50.0267 1.62951 50.0235 1.31839 49.9198C1.00728 49.8161 0.736685 49.6171 0.544934 49.3511C0.353184 49.0851 0.25 48.7654 0.25 48.4375V38.1312C0.249966 36.3569 0.853925 34.6354 1.9625 33.25L1.975 33.2344L6.65312 27.5313C7.26875 17.1469 9.68125 10.55 12.1969 6.41875C13.6531 4.02187 15.1344 2.475 16.2906 1.5125C16.8731 1.02476 17.5021 0.595598 18.1688 0.23125C18.4217 0.084741 18.7078 0.0051498 19 0C19.3156 0 19.5312 0.084375 19.7812 0.2C19.8979 0.252083 20.049 0.330208 20.2344 0.434375C20.6031 0.640625 21.1 0.95625 21.6812 1.41875C22.8469 2.34687 24.3375 3.85313 25.7969 6.22188ZM23.6875 18.75C23.6875 15.2969 21.5875 12.5 19 12.5C16.4125 12.5 14.3125 15.2969 14.3125 18.75C14.3125 22.2031 16.4125 25 19 25C21.5875 25 23.6875 22.2031 23.6875 18.75Z" fill="url(#paint0_linear_763_27)"/>
<path d="M18.9998 45.3123C20.5623 45.3123 22.1217 45.1686 23.6217 44.8779L20.2498 49.3748C20.1043 49.5689 19.9155 49.7264 19.6986 49.8348C19.4816 49.9433 19.2424 49.9998 18.9998 49.9998C18.7572 49.9998 18.518 49.9433 18.301 49.8348C18.0841 49.7264 17.8953 49.5689 17.7498 49.3748L14.3779 44.8779C15.8779 45.1686 17.4404 45.3123 18.9998 45.3123Z" fill="url(#paint1_linear_763_27)"/>
<defs>
<linearGradient id="paint0_linear_763_27" x1="19" y1="0" x2="19" y2="50" gradientUnits="userSpaceOnUse">
<stop stop-color="#85A097"/>
<stop offset="0.565" stop-color="#566862"/>
</linearGradient>
<linearGradient id="paint1_linear_763_27" x1="18.9998" y1="44.8779" x2="18.9998" y2="49.9998" gradientUnits="userSpaceOnUse">
<stop stop-color="#85A097"/>
<stop offset="0.565" stop-color="#566862"/>
</linearGradient>
</defs>
</svg>
