<svg width="48" height="47" viewBox="0 0 48 47" fill="none" xmlns="http://www.w3.org/2000/svg">
<rect x="45" y="16" width="42" height="1" transform="rotate(-180 45 16)" fill="#6D6D6D"/>
<rect x="25" y="44" width="42" height="1" transform="rotate(-90 25 44)" fill="#6D6D6D"/>
<rect x="45" y="33" width="42" height="1" transform="rotate(-180 45 33)" fill="#6D6D6D"/>
<rect x="3" y="17" width="3" height="3" transform="rotate(-180 3 17)" fill="#D9D9D9"/>
<rect x="3" y="34" width="3" height="3" transform="rotate(-180 3 34)" fill="#D9D9D9"/>
<rect x="48" y="17" width="3" height="3" transform="rotate(-180 48 17)" fill="#D9D9D9"/>
<rect x="48" y="34" width="3" height="3" transform="rotate(-180 48 34)" fill="#D9D9D9"/>
<path d="M12.316 3.72C12.516 3.72 12.68 3.764 12.808 3.852C12.944 3.94 13.036 4.056 13.084 4.2C13.132 4.344 13.124 4.508 13.06 4.692L10.528 12H8.728L10.84 5.988C10.888 5.852 10.94 5.72 10.996 5.592C11.052 5.464 11.12 5.336 11.2 5.208H7.396L7.312 3.72H12.316ZM20.6598 3.72L20.5998 5.1H17.1558L17.0598 6.66L18.2718 6.792C18.7758 6.84 19.1958 6.936 19.5318 7.08C19.8758 7.224 20.1478 7.412 20.3478 7.644C20.5478 7.876 20.6918 8.144 20.7798 8.448C20.8678 8.752 20.9118 9.092 20.9118 9.468C20.9118 9.828 20.8678 10.172 20.7798 10.5C20.6918 10.82 20.5398 11.104 20.3238 11.352C20.1158 11.6 19.8238 11.796 19.4478 11.94C19.0718 12.076 18.5918 12.144 18.0078 12.144C17.6238 12.144 17.1878 12.12 16.6998 12.072C16.2198 12.032 15.7318 11.972 15.2358 11.892L15.4038 10.488C15.7958 10.528 16.1758 10.564 16.5438 10.596C16.9198 10.62 17.2518 10.632 17.5398 10.632C17.9638 10.632 18.2838 10.588 18.4998 10.5C18.7158 10.412 18.8638 10.28 18.9438 10.104C19.0318 9.92 19.0838 9.692 19.0998 9.42C19.1078 9.156 19.0758 8.948 19.0038 8.796C18.9398 8.636 18.8278 8.512 18.6678 8.424C18.5158 8.336 18.3118 8.276 18.0558 8.244C17.8078 8.204 17.4998 8.172 17.1318 8.148L16.0998 8.028C15.9318 8.004 15.7958 7.936 15.6918 7.824C15.5878 7.704 15.5398 7.56 15.5478 7.392L15.7518 3.72H20.6598Z" fill="#85A097"/>
<path d="M37.524 3.72V12H35.688V3.72H37.524ZM40.02 3.72V5.16H33.204V3.72H40.02Z" fill="#85A097"/>
<path d="M37.248 19.552C37.608 19.552 37.936 19.564 38.232 19.588C38.528 19.612 38.808 19.644 39.072 19.684C39.344 19.724 39.608 19.784 39.864 19.864L39.72 21.196C39.44 21.18 39.168 21.168 38.904 21.16C38.64 21.152 38.376 21.148 38.112 21.148C37.848 21.14 37.572 21.136 37.284 21.136C36.94 21.136 36.652 21.172 36.42 21.244C36.196 21.316 36.016 21.452 35.88 21.652C35.744 21.844 35.644 22.124 35.58 22.492C35.524 22.852 35.496 23.316 35.496 23.884C35.496 24.572 35.54 25.112 35.628 25.504C35.716 25.896 35.864 26.176 36.072 26.344C36.28 26.504 36.56 26.584 36.912 26.584C37.152 26.584 37.372 26.56 37.572 26.512C37.772 26.464 37.956 26.4 38.124 26.32C38.292 26.232 38.448 26.148 38.592 26.068L38.784 26.932C38.664 27.1 38.484 27.28 38.244 27.472C38.012 27.664 37.728 27.828 37.392 27.964C37.056 28.1 36.672 28.168 36.24 28.168C35.616 28.168 35.104 28.02 34.704 27.724C34.312 27.428 34.024 26.964 33.84 26.332C33.656 25.692 33.564 24.864 33.564 23.848C33.564 22.768 33.68 21.916 33.912 21.292C34.152 20.668 34.54 20.224 35.076 19.96C35.62 19.688 36.344 19.552 37.248 19.552ZM40.152 23.224V28H38.796L38.544 26.74L38.376 26.404V23.224H40.152Z" fill="#85A097"/>
<path d="M35.592 36.684C36.016 36.684 36.448 36.688 36.888 36.696C37.336 36.696 37.772 36.708 38.196 36.732C38.628 36.748 39.028 36.776 39.396 36.816L39.3 38.136H36.3C36.084 38.136 35.92 38.188 35.808 38.292C35.696 38.396 35.64 38.548 35.64 38.748V45H33.804V38.376C33.804 37.864 33.968 37.456 34.296 37.152C34.624 36.84 35.056 36.684 35.592 36.684ZM34.02 40.188H38.856V41.484H34.02V40.188Z" fill="#85A097"/>
<path d="M11.092 19.576C11.292 19.576 11.572 19.588 11.932 19.612C12.292 19.628 12.668 19.692 13.06 19.804L12.964 20.956C12.756 20.948 12.564 20.944 12.388 20.944C12.212 20.936 12.024 20.932 11.824 20.932C11.624 20.932 11.38 20.932 11.092 20.932C10.74 20.932 10.448 20.972 10.216 21.052C9.992 21.124 9.816 21.268 9.688 21.484C9.568 21.7 9.484 22.02 9.436 22.444C9.396 22.86 9.376 23.408 9.376 24.088C9.376 24.64 9.388 25.092 9.412 25.444C9.436 25.796 9.488 26.072 9.568 26.272C9.656 26.464 9.788 26.6 9.964 26.68C10.14 26.752 10.384 26.788 10.696 26.788C11.056 26.788 11.32 26.732 11.488 26.62C11.656 26.508 11.764 26.336 11.812 26.104C11.86 25.872 11.884 25.576 11.884 25.216C11.884 24.864 11.852 24.588 11.788 24.388C11.724 24.188 11.604 24.048 11.428 23.968C11.26 23.888 11.02 23.848 10.708 23.848C10.484 23.848 10.276 23.876 10.084 23.932C9.9 23.988 9.7 24.084 9.484 24.22C9.276 24.348 9.016 24.532 8.704 24.772L8.656 24.076C8.92 23.676 9.172 23.368 9.412 23.152C9.652 22.928 9.916 22.776 10.204 22.696C10.492 22.608 10.836 22.564 11.236 22.564C11.852 22.564 12.328 22.652 12.664 22.828C13.008 23.004 13.248 23.284 13.384 23.668C13.528 24.044 13.6 24.548 13.6 25.18C13.6 25.668 13.56 26.1 13.48 26.476C13.408 26.844 13.264 27.152 13.048 27.4C12.84 27.648 12.544 27.836 12.16 27.964C11.784 28.084 11.288 28.144 10.672 28.144C10.072 28.144 9.572 28.08 9.172 27.952C8.772 27.824 8.456 27.608 8.224 27.304C8 26.992 7.84 26.568 7.744 26.032C7.648 25.488 7.6 24.808 7.6 23.992C7.6 23.032 7.672 22.26 7.816 21.676C7.96 21.092 8.176 20.648 8.464 20.344C8.752 20.04 9.116 19.836 9.556 19.732C9.996 19.628 10.508 19.576 11.092 19.576ZM21.3981 19.72L21.3381 21.1H17.8941L17.7981 22.66L19.0101 22.792C19.5141 22.84 19.9341 22.936 20.2701 23.08C20.6141 23.224 20.8861 23.412 21.0861 23.644C21.2861 23.876 21.4301 24.144 21.5181 24.448C21.6061 24.752 21.6501 25.092 21.6501 25.468C21.6501 25.828 21.6061 26.172 21.5181 26.5C21.4301 26.82 21.2781 27.104 21.0621 27.352C20.8541 27.6 20.5621 27.796 20.1861 27.94C19.8101 28.076 19.3301 28.144 18.7461 28.144C18.3621 28.144 17.9261 28.12 17.4381 28.072C16.9581 28.032 16.4701 27.972 15.9741 27.892L16.1421 26.488C16.5341 26.528 16.9141 26.564 17.2821 26.596C17.6581 26.62 17.9901 26.632 18.2781 26.632C18.7021 26.632 19.0221 26.588 19.2381 26.5C19.4541 26.412 19.6021 26.28 19.6821 26.104C19.7701 25.92 19.8221 25.692 19.8381 25.42C19.8461 25.156 19.8141 24.948 19.7421 24.796C19.6781 24.636 19.5661 24.512 19.4061 24.424C19.2541 24.336 19.0501 24.276 18.7941 24.244C18.5461 24.204 18.2381 24.172 17.8701 24.148L16.8381 24.028C16.6701 24.004 16.5341 23.936 16.4301 23.824C16.3261 23.704 16.2781 23.56 16.2861 23.392L16.4901 19.72H21.3981Z" fill="#85A097"/>
<path d="M11.08 36.72V45H9.256V39.132C9.256 38.98 9.26 38.832 9.268 38.688C9.276 38.536 9.296 38.384 9.328 38.232L7.36 38.736L7.144 37.548L9.256 36.72H11.08ZM19.4997 36.72L19.4397 38.1H15.9957L15.8997 39.66L17.1117 39.792C17.6157 39.84 18.0357 39.936 18.3717 40.08C18.7157 40.224 18.9877 40.412 19.1877 40.644C19.3877 40.876 19.5317 41.144 19.6197 41.448C19.7077 41.752 19.7517 42.092 19.7517 42.468C19.7517 42.828 19.7077 43.172 19.6197 43.5C19.5317 43.82 19.3797 44.104 19.1637 44.352C18.9557 44.6 18.6637 44.796 18.2877 44.94C17.9117 45.076 17.4317 45.144 16.8477 45.144C16.4637 45.144 16.0277 45.12 15.5397 45.072C15.0597 45.032 14.5717 44.972 14.0757 44.892L14.2437 43.488C14.6357 43.528 15.0157 43.564 15.3837 43.596C15.7597 43.62 16.0917 43.632 16.3797 43.632C16.8037 43.632 17.1237 43.588 17.3397 43.5C17.5557 43.412 17.7037 43.28 17.7837 43.104C17.8717 42.92 17.9237 42.692 17.9397 42.42C17.9477 42.156 17.9157 41.948 17.8437 41.796C17.7797 41.636 17.6677 41.512 17.5077 41.424C17.3557 41.336 17.1517 41.276 16.8957 41.244C16.6477 41.204 16.3397 41.172 15.9717 41.148L14.9397 41.028C14.7717 41.004 14.6357 40.936 14.5317 40.824C14.4277 40.704 14.3797 40.56 14.3877 40.392L14.5917 36.72H19.4997Z" fill="#85A097"/>
</svg>
